<svg width="239" height="56" viewBox="0 0 239 56" fill="none" xmlns="http://www.w3.org/2000/svg">
<rect x="1" y="0.5" width="237" height="55" rx="23.5" stroke="#E9EBED"/>
<g clip-path="url(#clip0_119_1457)">
<path d="M53.0759 29.453C52.4157 26.1305 55.5693 24.1818 55.5693 24.1818C55.5693 24.1818 54.3406 22.4042 52.2756 21.9469C50.2117 21.4886 49.1787 22.0612 48.1477 22.4907C47.1157 22.9212 46.6008 22.9212 46.6008 22.9212C45.1115 22.9212 44.0228 21.3444 41.1854 22.0622C39.2306 22.5556 37.1728 24.8121 36.801 27.5054C36.4292 30.1997 37.2315 33.6376 38.7785 36.302C40.3254 38.9685 41.9012 39.9706 43.0197 39.9994C44.1382 40.0272 45.2546 39.1981 46.6008 38.9963C47.9479 38.7964 48.777 39.4845 50.0984 39.8563C51.4146 40.2271 51.876 39.8831 53.392 38.5936C54.9122 37.3041 56.2882 33.6057 56.2882 33.6057C56.2882 33.6057 53.736 32.7776 53.0759 29.453Z" fill="#171725"/>
<path d="M50.1533 19.7973C51.6157 18.3071 51.1204 16 51.1204 16C51.1204 16 49.0667 16.3605 47.6907 17.7921C46.3158 19.2247 46.5434 21.4874 46.5434 21.4874C46.5434 21.4874 48.6908 21.2866 50.1533 19.7973Z" fill="#171725"/>
</g>
<path d="M75.974 33.21C78.494 33.21 80.51 31.53 80.888 29.038H79.25C78.97 30.662 77.654 31.824 75.988 31.824C74 31.824 72.6 30.214 72.6 27.96C72.6 25.734 74 24.124 75.988 24.124C77.654 24.124 78.97 25.272 79.25 26.896H80.888C80.51 24.418 78.494 22.738 75.974 22.738C73.174 22.738 71.004 25.006 71.004 27.96C71.004 30.928 73.174 33.21 75.974 33.21ZM85.5545 33.14C87.6545 33.14 89.1945 31.488 89.1945 29.29C89.1945 27.092 87.6545 25.44 85.5545 25.44C83.4545 25.44 81.9145 27.092 81.9145 29.29C81.9145 31.488 83.4545 33.14 85.5545 33.14ZM85.5545 31.894C84.3365 31.894 83.3845 30.914 83.3845 29.29C83.3845 27.666 84.3365 26.7 85.5545 26.7C86.7725 26.7 87.7385 27.666 87.7385 29.29C87.7385 30.914 86.7725 31.894 85.5545 31.894ZM92.1199 28.814C92.1199 27.498 92.9319 26.686 93.8979 26.686C94.9479 26.686 95.5079 27.4 95.5079 28.674V33H96.9219V28.198C96.9219 26.42 95.9139 25.44 94.3879 25.44C93.3659 25.44 92.5259 25.986 92.0219 26.812V25.58H90.7059V33H92.1199V28.814ZM103.028 31.628C102.734 31.768 102.44 31.824 102.104 31.824C101.348 31.824 100.858 31.46 100.858 30.438V26.784H103.098V25.58H100.858V23.382H99.4443V25.58H97.8063V26.784H99.4443V30.76C99.4443 32.398 100.396 33.14 101.768 33.14C102.216 33.14 102.594 33.07 103.028 32.874V31.628ZM106.24 23.858C106.24 23.312 105.82 22.92 105.218 22.92C104.616 22.92 104.182 23.312 104.182 23.858C104.182 24.39 104.616 24.796 105.218 24.796C105.82 24.796 106.24 24.39 106.24 23.858ZM105.932 33V25.58H104.518V33H105.932ZM109.379 28.814C109.379 27.498 110.191 26.686 111.157 26.686C112.207 26.686 112.767 27.4 112.767 28.674V33H114.181V28.198C114.181 26.42 113.173 25.44 111.647 25.44C110.625 25.44 109.785 25.986 109.281 26.812V25.58H107.965V33H109.379V28.814ZM120.763 29.948C120.763 31.11 119.993 31.894 119.041 31.894C118.117 31.894 117.473 31.362 117.473 30.074V25.58H116.059V30.354C116.059 32.258 117.095 33.14 118.593 33.14C119.601 33.14 120.469 32.594 120.861 31.824V33H122.177V25.58H120.763V29.948ZM127.262 33.14C129.012 33.14 130.286 32.146 130.65 30.494H129.25C129.012 31.46 128.284 32.034 127.234 32.034C125.988 32.034 125.232 31.152 125.12 29.64H130.65C130.902 27.232 129.432 25.44 127.22 25.44C125.176 25.44 123.678 27.05 123.678 29.248C123.678 31.586 125.12 33.14 127.262 33.14ZM127.192 26.504C128.34 26.504 129.082 27.33 129.152 28.702H125.134C125.288 27.316 126.058 26.504 127.192 26.504ZM141.351 33H142.765L144.921 25.58H143.521L142.023 30.998L140.371 25.58H138.971L137.291 30.984L135.793 25.58H134.407L136.549 33H137.977L139.671 27.484L141.351 33ZM147.867 23.858C147.867 23.312 147.447 22.92 146.845 22.92C146.243 22.92 145.809 23.312 145.809 23.858C145.809 24.39 146.243 24.796 146.845 24.796C147.447 24.796 147.867 24.39 147.867 23.858ZM147.559 33V25.58H146.145V33H147.559ZM153.778 31.628C153.484 31.768 153.19 31.824 152.854 31.824C152.098 31.824 151.608 31.46 151.608 30.438V26.784H153.848V25.58H151.608V23.382H150.194V25.58H148.556V26.784H150.194V30.76C150.194 32.398 151.146 33.14 152.518 33.14C152.966 33.14 153.344 33.07 153.778 32.874V31.628ZM156.681 28.814C156.681 27.498 157.493 26.686 158.459 26.686C159.509 26.686 160.069 27.4 160.069 28.674V33H161.483V28.198C161.483 26.42 160.475 25.44 158.949 25.44C157.927 25.44 157.171 25.972 156.681 26.77V22.948H155.267V33H156.681V28.814ZM173.455 33H175.093L171.271 22.948H169.577L165.727 33H167.281L168.205 30.508H172.545L173.455 33ZM170.389 24.628L172.083 29.262H168.667L170.389 24.628ZM183.52 29.29C183.52 27.05 182.218 25.44 180.244 25.44C179.194 25.44 178.284 25.986 177.752 26.938V25.58H176.436V35.702H177.85V31.74C178.382 32.636 179.236 33.14 180.244 33.14C182.232 33.14 183.52 31.53 183.52 29.29ZM182.05 29.29C182.05 30.956 181.168 31.88 179.95 31.88C178.76 31.88 177.85 30.928 177.85 29.29C177.85 27.624 178.774 26.686 179.95 26.686C181.168 26.686 182.05 27.624 182.05 29.29ZM192.108 29.29C192.108 27.05 190.806 25.44 188.832 25.44C187.782 25.44 186.872 25.986 186.34 26.938V25.58H185.024V35.702H186.438V31.74C186.97 32.636 187.824 33.14 188.832 33.14C190.82 33.14 192.108 31.53 192.108 29.29ZM190.638 29.29C190.638 30.956 189.756 31.88 188.538 31.88C187.348 31.88 186.438 30.928 186.438 29.29C186.438 27.624 187.362 26.686 188.538 26.686C189.756 26.686 190.638 27.624 190.638 29.29ZM195.039 33V22.948H193.611V33H195.039ZM200.124 33.14C201.874 33.14 203.148 32.146 203.512 30.494H202.112C201.874 31.46 201.146 32.034 200.096 32.034C198.85 32.034 198.094 31.152 197.982 29.64H203.512C203.764 27.232 202.294 25.44 200.082 25.44C198.038 25.44 196.54 27.05 196.54 29.248C196.54 31.586 197.982 33.14 200.124 33.14ZM200.054 26.504C201.202 26.504 201.944 27.33 202.014 28.702H197.996C198.15 27.316 198.92 26.504 200.054 26.504Z" fill="#1C1C1E"/>
<defs>
<clipPath id="clip0_119_1457">
<rect width="24" height="24" fill="white" transform="translate(34.5 16)"/>
</clipPath>
</defs>
</svg>
