<svg width="239" height="56" viewBox="0 0 239 56" fill="none" xmlns="http://www.w3.org/2000/svg">
<rect x="1" y="0.5" width="237" height="55" rx="23.5" stroke="#E9EBED"/>
<g clip-path="url(#clip0_119_1456)">
<g clip-path="url(#clip1_119_1456)">
<path d="M53.8068 26.141C53.9135 26.141 54 26.2275 54 26.3342V28.3623C54 29.1214 53.9295 29.8636 53.7942 30.5836C52.7481 36.1762 47.8211 40.4027 41.9154 40.362C35.2887 40.3163 29.9854 34.962 30 28.3353C30.0146 21.7204 35.3817 16.3623 42 16.3623C45.2425 16.3623 48.1844 17.6486 50.3444 19.7381C50.4224 19.8136 50.4244 19.9379 50.3477 20.0146L47.4784 22.8838C47.4045 22.9577 47.2852 22.9596 47.2095 22.8876C45.8538 21.5972 44.0196 20.8049 42 20.8049C37.8295 20.8049 34.4711 24.1394 34.4428 28.3099C34.4143 32.5076 37.8088 35.9196 42 35.9196C45.4005 35.9196 48.2767 33.6732 49.2251 30.5836H42.1932C42.0865 30.5836 42 30.4971 42 30.3904V26.3341C42 26.2274 42.0865 26.1409 42.1932 26.1409H53.8068V26.141Z" fill="#2196F3"/>
<path d="M53.8064 26.1411H52.3577C52.4644 26.1411 52.5509 26.2276 52.5509 26.3343V28.3624C52.5509 29.1215 52.4804 29.8637 52.3451 30.5837C51.3471 35.9191 46.8169 40.0111 41.2744 40.3408C41.4865 40.3533 41.6999 40.3606 41.9149 40.3621C47.8207 40.4028 52.7477 36.1763 53.7938 30.5837C53.929 29.8637 53.9995 29.1215 53.9995 28.3624V26.3342C53.9995 26.2276 53.913 26.1411 53.8064 26.1411Z" fill="#1E88E5"/>
<path d="M35.1356 25.1974L31.4912 22.5641C33.5358 18.8661 37.4757 16.3623 42 16.3623C45.2425 16.3623 48.1845 17.6486 50.3444 19.7381C50.4224 19.8136 50.4244 19.9379 50.3477 20.0146L47.4784 22.8838C47.4047 22.9576 47.2854 22.9599 47.2099 22.888C45.8542 21.5973 44.0198 20.805 42 20.805C38.9563 20.805 36.3327 22.6042 35.1356 25.1974Z" fill="#F44336"/>
<path d="M34.083 24.4372L35.1351 25.1974C36.2278 22.8305 38.5091 21.1258 41.2133 20.8462C41.2336 20.844 41.2532 20.8413 41.2739 20.8393C41.0359 20.8167 40.7948 20.8049 40.5508 20.8049C37.8013 20.8049 35.405 22.2544 34.083 24.4372Z" fill="#E53935"/>
<path d="M48.8956 19.7381C48.9736 19.8136 48.9756 19.9379 48.8989 20.0146L46.57 22.3435C46.7931 22.5132 47.0067 22.6947 47.2093 22.8876C47.285 22.9597 47.4044 22.9578 47.4783 22.8839L50.3475 20.0146C50.4243 19.9379 50.4222 19.8136 50.3442 19.7381C48.1843 17.6486 45.2423 16.3623 41.9998 16.3623C41.7565 16.3623 41.5151 16.3704 41.2754 16.3847C44.2304 16.5607 46.8976 17.8054 48.8956 19.7381Z" fill="#E53935"/>
<path d="M50.8027 36.5174C48.6113 38.8822 45.4783 40.3623 42 40.3623C37.3019 40.3623 33.2344 37.6624 31.2646 33.7292L34.9854 31.1794C36.1019 33.9576 38.822 35.9196 42 35.9196C43.9943 35.9196 45.8081 35.1469 47.1583 33.8846L50.8027 36.5174Z" fill="#4CAF50"/>
<path d="M34.9849 31.1794L33.8877 31.9313C35.162 34.3052 37.6679 35.9195 40.5507 35.9195C40.7945 35.9195 41.0355 35.9076 41.2734 35.885C38.4117 35.6122 36.0153 33.7435 34.9849 31.1794Z" fill="#43A047"/>
<path d="M41.9999 40.3622C45.4782 40.3622 48.6112 38.8822 50.8026 36.5174L49.91 35.8726C47.8524 38.4333 44.7656 40.1321 41.2773 40.3404C41.5164 40.3547 41.7573 40.3622 41.9999 40.3622Z" fill="#43A047"/>
<path d="M34.4427 28.3624C34.4427 29.3581 34.6353 30.3089 34.9854 31.1796L31.2647 33.7293C30.4554 32.1145 30 30.2916 30 28.3624C30 26.2594 30.5408 24.2828 31.4912 22.5642L35.1356 25.1975C34.6909 26.1598 34.4427 27.2324 34.4427 28.3624Z" fill="#FFC107"/>
<path d="M33.8885 31.9314L34.9856 31.1796C34.6355 30.3089 34.4429 29.3581 34.4429 28.3623C34.4429 27.2324 34.6911 26.1598 35.1358 25.1974L34.0837 24.4373C33.4005 25.5653 33.004 26.889 32.9943 28.3099C32.9854 29.6203 33.3101 30.8541 33.8885 31.9314Z" fill="#FFB300"/>
</g>
</g>
<path d="M71.474 33.21C73.994 33.21 76.01 31.53 76.388 29.038H74.75C74.47 30.662 73.154 31.824 71.488 31.824C69.5 31.824 68.1 30.214 68.1 27.96C68.1 25.734 69.5 24.124 71.488 24.124C73.154 24.124 74.47 25.272 74.75 26.896H76.388C76.01 24.418 73.994 22.738 71.474 22.738C68.674 22.738 66.504 25.006 66.504 27.96C66.504 30.928 68.674 33.21 71.474 33.21ZM81.0545 33.14C83.1545 33.14 84.6945 31.488 84.6945 29.29C84.6945 27.092 83.1545 25.44 81.0545 25.44C78.9545 25.44 77.4145 27.092 77.4145 29.29C77.4145 31.488 78.9545 33.14 81.0545 33.14ZM81.0545 31.894C79.8365 31.894 78.8845 30.914 78.8845 29.29C78.8845 27.666 79.8365 26.7 81.0545 26.7C82.2725 26.7 83.2385 27.666 83.2385 29.29C83.2385 30.914 82.2725 31.894 81.0545 31.894ZM87.6199 28.814C87.6199 27.498 88.4319 26.686 89.3979 26.686C90.4479 26.686 91.0079 27.4 91.0079 28.674V33H92.4219V28.198C92.4219 26.42 91.4139 25.44 89.8879 25.44C88.8659 25.44 88.0259 25.986 87.5219 26.812V25.58H86.2059V33H87.6199V28.814ZM98.5283 31.628C98.2343 31.768 97.9403 31.824 97.6043 31.824C96.8483 31.824 96.3583 31.46 96.3583 30.438V26.784H98.5983V25.58H96.3583V23.382H94.9443V25.58H93.3063V26.784H94.9443V30.76C94.9443 32.398 95.8963 33.14 97.2683 33.14C97.7163 33.14 98.0943 33.07 98.5283 32.874V31.628ZM101.74 23.858C101.74 23.312 101.32 22.92 100.718 22.92C100.116 22.92 99.6818 23.312 99.6818 23.858C99.6818 24.39 100.116 24.796 100.718 24.796C101.32 24.796 101.74 24.39 101.74 23.858ZM101.432 33V25.58H100.018V33H101.432ZM104.879 28.814C104.879 27.498 105.691 26.686 106.657 26.686C107.707 26.686 108.267 27.4 108.267 28.674V33H109.681V28.198C109.681 26.42 108.673 25.44 107.147 25.44C106.125 25.44 105.285 25.986 104.781 26.812V25.58H103.465V33H104.879V28.814ZM116.263 29.948C116.263 31.11 115.493 31.894 114.541 31.894C113.617 31.894 112.973 31.362 112.973 30.074V25.58H111.559V30.354C111.559 32.258 112.595 33.14 114.093 33.14C115.101 33.14 115.969 32.594 116.361 31.824V33H117.677V25.58H116.263V29.948ZM122.762 33.14C124.512 33.14 125.786 32.146 126.15 30.494H124.75C124.512 31.46 123.784 32.034 122.734 32.034C121.488 32.034 120.732 31.152 120.62 29.64H126.15C126.402 27.232 124.932 25.44 122.72 25.44C120.676 25.44 119.178 27.05 119.178 29.248C119.178 31.586 120.62 33.14 122.762 33.14ZM122.692 26.504C123.84 26.504 124.582 27.33 124.652 28.702H120.634C120.788 27.316 121.558 26.504 122.692 26.504ZM136.851 33H138.265L140.421 25.58H139.021L137.523 30.998L135.871 25.58H134.471L132.791 30.984L131.293 25.58H129.907L132.049 33H133.477L135.171 27.484L136.851 33ZM143.367 23.858C143.367 23.312 142.947 22.92 142.345 22.92C141.743 22.92 141.309 23.312 141.309 23.858C141.309 24.39 141.743 24.796 142.345 24.796C142.947 24.796 143.367 24.39 143.367 23.858ZM143.059 33V25.58H141.645V33H143.059ZM149.278 31.628C148.984 31.768 148.69 31.824 148.354 31.824C147.598 31.824 147.108 31.46 147.108 30.438V26.784H149.348V25.58H147.108V23.382H145.694V25.58H144.056V26.784H145.694V30.76C145.694 32.398 146.646 33.14 148.018 33.14C148.466 33.14 148.844 33.07 149.278 32.874V31.628ZM152.181 28.814C152.181 27.498 152.993 26.686 153.959 26.686C155.009 26.686 155.569 27.4 155.569 28.674V33H156.983V28.198C156.983 26.42 155.975 25.44 154.449 25.44C153.427 25.44 152.671 25.972 152.181 26.77V22.948H150.767V33H152.181V28.814ZM166.589 33.21C169.669 33.21 171.643 31.012 171.587 27.792H166.491V29.024H169.963C169.683 30.746 168.507 31.894 166.645 31.894C164.405 31.894 163.047 30.214 163.047 27.988C163.047 25.622 164.475 24.124 166.463 24.124C168.185 24.124 169.291 25.118 169.669 26.406H171.461C170.845 24.32 169.095 22.738 166.505 22.738C163.579 22.738 161.451 24.992 161.451 27.96C161.451 31.012 163.691 33.21 166.589 33.21ZM176.261 33.14C178.361 33.14 179.901 31.488 179.901 29.29C179.901 27.092 178.361 25.44 176.261 25.44C174.161 25.44 172.621 27.092 172.621 29.29C172.621 31.488 174.161 33.14 176.261 33.14ZM176.261 31.894C175.043 31.894 174.091 30.914 174.091 29.29C174.091 27.666 175.043 26.7 176.261 26.7C177.479 26.7 178.445 27.666 178.445 29.29C178.445 30.914 177.479 31.894 176.261 31.894ZM184.521 33.14C186.621 33.14 188.161 31.488 188.161 29.29C188.161 27.092 186.621 25.44 184.521 25.44C182.421 25.44 180.881 27.092 180.881 29.29C180.881 31.488 182.421 33.14 184.521 33.14ZM184.521 31.894C183.303 31.894 182.351 30.914 182.351 29.29C182.351 27.666 183.303 26.7 184.521 26.7C185.739 26.7 186.705 27.666 186.705 29.29C186.705 30.914 185.739 31.894 184.521 31.894ZM192.503 35.856C194.603 35.856 195.849 34.694 195.849 32.748V25.58H194.533V26.896C194.029 25.958 193.189 25.44 192.125 25.44C190.263 25.44 189.003 26.924 189.003 29.136C189.003 31.32 190.319 32.846 192.167 32.846C193.175 32.846 194.015 32.328 194.435 31.432V32.776C194.435 34.05 193.763 34.736 192.489 34.736C191.341 34.736 190.669 34.176 190.585 33.14H189.213C189.297 34.82 190.557 35.856 192.503 35.856ZM190.431 29.136C190.431 27.61 191.201 26.658 192.419 26.658C193.637 26.658 194.435 27.638 194.435 29.178C194.435 30.648 193.623 31.614 192.419 31.614C191.187 31.614 190.431 30.676 190.431 29.136ZM199.305 33V22.948H197.877V33H199.305ZM204.389 33.14C206.139 33.14 207.413 32.146 207.777 30.494H206.377C206.139 31.46 205.411 32.034 204.361 32.034C203.115 32.034 202.359 31.152 202.247 29.64H207.777C208.029 27.232 206.559 25.44 204.347 25.44C202.303 25.44 200.805 27.05 200.805 29.248C200.805 31.586 202.247 33.14 204.389 33.14ZM204.319 26.504C205.467 26.504 206.209 27.33 206.279 28.702H202.261C202.415 27.316 203.185 26.504 204.319 26.504Z" fill="#1C1C1E"/>
<defs>
<clipPath id="clip0_119_1456">
<rect width="24" height="24" fill="white" transform="translate(30 16)"/>
</clipPath>
<clipPath id="clip1_119_1456">
<rect width="24" height="24" fill="white" transform="translate(30 16.3623)"/>
</clipPath>
</defs>
</svg>
